<?xml version="1.0" standalone="no"?>
<!DOCTYPE svg PUBLIC "-//W3C//DTD SVG 20010904//EN"
 "http://www.w3.org/TR/2001/REC-SVG-20010904/DTD/svg10.dtd">
<svg version="1.0" xmlns="http://www.w3.org/2000/svg"
 width="300.000000pt" height="300.000000pt" viewBox="0 0 300.000000 300.000000"
 preserveAspectRatio="xMidYMid meet">
<metadata>
Created by potrace 1.10, written by Peter Selinger 2001-2011
</metadata>
<g transform="translate(0.000000,300.000000) scale(0.050000,-0.050000)"
fill="#000000" stroke="none">
<path d="M1836 5583 c-283 -163 -528 -308 -545 -322 -28 -23 -31 -228 -26
-1938 l5 -1911 1189 -656 c653 -361 1202 -656 1219 -656 35 0 1010 551 1041
589 15 17 20 620 16 1922 l-5 1897 -1169 686 c-642 377 -1178 686 -1190 686
-11 -1 -252 -134 -535 -297z m1591 -533 c557 -327 1013 -601 1013 -608 0 -14
-711 -429 -751 -438 -38 -9 -2130 1183 -2110 1203 46 46 775 451 803 445 17
-3 487 -274 1045 -602z m-1607 -231 c182 -102 346 -196 366 -210 31 -21 -650
-409 -716 -409 -6 0 -10 185 -10 411 0 226 7 408 15 403 8 -5 164 -92 345
-195z m1210 -688 l550 -313 0 -480 0 -480 -85 50 c-46 28 -496 287 -999 576
-504 289 -915 531 -916 537 0 24 832 439 865 431 20 -5 283 -149 585 -321z
m1530 -1589 l0 -1739 -375 -214 c-206 -118 -382 -218 -390 -223 -8 -4 -15 773
-15 1728 l0 1736 385 224 c212 123 387 224 390 225 3 1 5 -781 5 -1737z
m-2718 1093 c195 -113 349 -211 342 -219 -19 -19 -700 -416 -713 -416 -6 0
-11 189 -11 420 0 231 6 420 13 420 7 0 173 -92 369 -205z m1158 -670 l580
-334 0 -488 c0 -426 -4 -486 -30 -476 -32 13 -1896 1083 -1956 1124 -35 23
723 503 801 508 14 0 287 -150 605 -334z m-700 -822 c0 -13 -808 -483 -829
-483 -6 0 -11 220 -11 489 l0 489 420 -241 c231 -133 420 -247 420 -254z m768
-433 l512 -294 0 -529 0 -528 -145 80 c-80 44 -533 294 -1008 556 -475 261
-859 480 -854 485 42 43 924 536 950 531 19 -3 264 -139 545 -301z"/>
</g>
</svg>
